<mxfile host="app.diagrams.net" modified="2024-05-03T14:21:09.628Z" agent="Mozilla/5.0 (Macintosh; Intel Mac OS X 10_15_7) AppleWebKit/605.1.15 (KHTML, like Gecko) Version/16.3 Safari/605.1.15" etag="XyshNgYoMDWDyHGDqU-W" version="24.3.1" type="device">
  <diagram name="Page-1" id="UbTQeYr05zvZgfwFsJ_H">
    <mxGraphModel dx="880" dy="435" grid="1" gridSize="10" guides="1" tooltips="1" connect="1" arrows="1" fold="1" page="1" pageScale="1" pageWidth="850" pageHeight="1100" math="0" shadow="0">
      <root>
        <mxCell id="0" />
        <mxCell id="1" parent="0" />
        <mxCell id="14j113M1fvVUzlg5JaO--1" value="Anti Virus Logs" style="rounded=0;whiteSpace=wrap;html=1;" vertex="1" parent="1">
          <mxGeometry x="290" y="340" width="120" height="60" as="geometry" />
        </mxCell>
        <mxCell id="14j113M1fvVUzlg5JaO--2" value="Sign In" style="rounded=0;whiteSpace=wrap;html=1;" vertex="1" parent="1">
          <mxGeometry x="400" y="180" width="120" height="60" as="geometry" />
        </mxCell>
        <mxCell id="14j113M1fvVUzlg5JaO--3" value="Register" style="rounded=0;whiteSpace=wrap;html=1;" vertex="1" parent="1">
          <mxGeometry x="600" y="180" width="120" height="60" as="geometry" />
        </mxCell>
        <mxCell id="14j113M1fvVUzlg5JaO--4" value="Settings" style="rounded=0;whiteSpace=wrap;html=1;" vertex="1" parent="1">
          <mxGeometry x="110" y="340" width="120" height="60" as="geometry" />
        </mxCell>
        <mxCell id="14j113M1fvVUzlg5JaO--5" value="Home page" style="rounded=0;whiteSpace=wrap;html=1;" vertex="1" parent="1">
          <mxGeometry x="200" y="180" width="120" height="60" as="geometry" />
        </mxCell>
        <mxCell id="14j113M1fvVUzlg5JaO--6" value="" style="endArrow=classic;startArrow=classic;html=1;rounded=0;exitX=0;exitY=0.5;exitDx=0;exitDy=0;entryX=1;entryY=0.5;entryDx=0;entryDy=0;" edge="1" parent="1" source="14j113M1fvVUzlg5JaO--2" target="14j113M1fvVUzlg5JaO--5">
          <mxGeometry width="50" height="50" relative="1" as="geometry">
            <mxPoint x="440" y="320" as="sourcePoint" />
            <mxPoint x="310" y="290" as="targetPoint" />
          </mxGeometry>
        </mxCell>
        <mxCell id="14j113M1fvVUzlg5JaO--7" value="" style="endArrow=classic;startArrow=classic;html=1;rounded=0;entryX=1;entryY=0.5;entryDx=0;entryDy=0;exitX=0;exitY=0.5;exitDx=0;exitDy=0;" edge="1" parent="1">
          <mxGeometry width="50" height="50" relative="1" as="geometry">
            <mxPoint x="600" y="209.5" as="sourcePoint" />
            <mxPoint x="520" y="209.5" as="targetPoint" />
          </mxGeometry>
        </mxCell>
        <mxCell id="14j113M1fvVUzlg5JaO--10" value="" style="endArrow=classic;startArrow=classic;html=1;rounded=0;entryX=0.75;entryY=1;entryDx=0;entryDy=0;exitX=0.5;exitY=0;exitDx=0;exitDy=0;" edge="1" parent="1" source="14j113M1fvVUzlg5JaO--1" target="14j113M1fvVUzlg5JaO--5">
          <mxGeometry width="50" height="50" relative="1" as="geometry">
            <mxPoint x="280" y="320" as="sourcePoint" />
            <mxPoint x="270" y="270" as="targetPoint" />
          </mxGeometry>
        </mxCell>
        <mxCell id="14j113M1fvVUzlg5JaO--11" value="" style="endArrow=classic;startArrow=classic;html=1;rounded=0;exitX=0.5;exitY=0;exitDx=0;exitDy=0;entryX=0.25;entryY=1;entryDx=0;entryDy=0;" edge="1" parent="1" source="14j113M1fvVUzlg5JaO--4" target="14j113M1fvVUzlg5JaO--5">
          <mxGeometry width="50" height="50" relative="1" as="geometry">
            <mxPoint x="310" y="270" as="sourcePoint" />
            <mxPoint x="230" y="270" as="targetPoint" />
          </mxGeometry>
        </mxCell>
      </root>
    </mxGraphModel>
  </diagram>
</mxfile>
